<svg id="Layer_1" data-name="Layer 1" xmlns="http://www.w3.org/2000/svg" viewBox="0 0 939.57 141.82"><defs><style>.cls-1{fill:#7A1705;}.cls-2{fill:#231f20;}</style></defs><title>iu-signature</title><polygon class="cls-1" points="75.69 18.86 75.69 29.54 83.08 29.54 83.08 89.03 67.45 89.03 67.45 10.68 75.75 10.68 75.75 0 36.77 0 36.77 10.68 45.08 10.68 45.08 89.03 29.28 89.03 29.28 29.54 36.66 29.54 36.66 18.86 0 18.86 0 29.54 8.28 29.54 8.28 98.43 21.76 112.18 45.08 112.18 45.08 128.06 36.81 128.06 36.81 141.82 75.73 141.82 75.73 128.06 67.45 128.06 67.45 112.18 90.59 112.18 104.07 98.43 104.07 29.54 112.38 29.54 112.38 18.86 75.69 18.86"/><path class="cls-2" d="M157.34,95.79V52.72h-5.77V50.26h21.59v2.46h-5.73V95.79h5.73v2.46H151.58V95.79h5.77Z"/><path class="cls-2" d="M217.62,98.74L189,63V90.73q0,3.48.63,4.25t3.09,0.81h2.85v2.46H181V95.79h1.86q2.46,0,3.13-.81t0.6-4.25V50.26h5.2l27.63,34.59v-27q0-3.52-.63-4.29t-3.13-.81h-1.86V50.26h13.68v2.46h-1.86q-2.46,0-3.09.81t-0.63,4.29V98.74h-4.25Z"/><path class="cls-2" d="M240.32,95.79V52.72h-5.77V50.26H257q7.38,0,10.76,1.37a20.51,20.51,0,0,1,7.35,5.59Q281,63.9,281,74.34a27.56,27.56,0,0,1-3.2,13.46,19.17,19.17,0,0,1-16,10.34q-1.83.11-4.75,0.11h-22.5V95.79h5.77Zm10.09,0h6.64a15.62,15.62,0,0,0,5.24-.63q3.87-1.55,5.41-6.75Q269,84.08,269,74.24a64.52,64.52,0,0,0-1-13.18q-1.13-5-4.43-7.07a7.19,7.19,0,0,0-3.2-1.12,32.65,32.65,0,0,0-3.27-.14h-6.64V95.79Z"/><path class="cls-2" d="M295.22,95.79V52.72h-5.77V50.26H311v2.46h-5.73V95.79H311v2.46H289.46V95.79h5.77Z"/><path class="cls-2" d="M344.15,85.7h-15L326.57,93a8.1,8.1,0,0,0-.49,1.83q0,0.95,2.43.95h3.34v2.46H317V95.79h2.18q2.64,0,3.52-.81a9,9,0,0,0,1.48-3l15.43-41.77h2.29l16.42,45.53h5.06v2.46H341.86V95.79h6.19Zm-0.74-2.46-6.75-18.49L330,83.24h13.39Z"/><path class="cls-2" d="M404.89,98.74L376.3,63V90.73q0,3.48.63,4.25T380,95.79h2.85v2.46H368.25V95.79h1.86q2.46,0,3.13-.81t0.6-4.25V50.26H379l27.63,34.59v-27q0-3.52-.63-4.29t-3.13-.81h-1.86V50.26h13.68v2.46h-1.86q-2.46,0-3.09.81t-0.63,4.29V98.74h-4.25Z"/><path class="cls-2" d="M444.85,85.7h-15L427.27,93a8.1,8.1,0,0,0-.49,1.83q0,0.95,2.43.95h3.34v2.46H417.67V95.79h2.18q2.64,0,3.52-.81a9,9,0,0,0,1.48-3l15.43-41.77h2.29L459,95.79H464v2.46H442.56V95.79h6.19Zm-0.74-2.46-6.75-18.49-6.64,18.49h13.39Z"/><path class="cls-2" d="M496.64,52.72h-5.77V50.26H513.2v2.46h-6.47V82.89A46.13,46.13,0,0,0,507,89a7.86,7.86,0,0,0,3.41,5.55,11.26,11.26,0,0,0,6.43,1.69q6.82,0,9.6-3.94a9.43,9.43,0,0,0,1.55-3.8,32.79,32.79,0,0,0,.35-5.7V57.93q0-3.59-.63-4.39t-3.13-.81h-1.86V50.26H536.4v2.46h-1.86q-2.46,0-3.09.81t-0.63,4.39v25a29.73,29.73,0,0,1-.67,7.73,11.34,11.34,0,0,1-5.87,6.75,21.42,21.42,0,0,1-9.81,2.07,27.49,27.49,0,0,1-9.95-1.76q-5.2-2-7-5.94a12,12,0,0,1-.84-4.29q-0.07-1.58-.07-4.57V52.72Z"/><path class="cls-2" d="M577.35,98.74L548.77,63V90.73q0,3.48.63,4.25t3.09,0.81h2.85v2.46H540.71V95.79h1.86q2.46,0,3.13-.81t0.6-4.25V50.26h5.2l27.63,34.59v-27q0-3.52-.63-4.29t-3.13-.81h-1.86V50.26h13.68v2.46h-1.86q-2.46,0-3.09.81t-0.63,4.29V98.74h-4.25Z"/><path class="cls-2" d="M600.4,95.79V52.72h-5.77V50.26h21.59v2.46h-5.73V95.79h5.73v2.46H594.63V95.79h5.77Z"/><path class="cls-2" d="M637.37,52.72l12.16,31.39L659,55.64a4.92,4.92,0,0,0,.35-1.41,1.27,1.27,0,0,0-.63-1.16,9.44,9.44,0,0,0-3.41-.35h-1.58V50.26H667.6v2.46h-1.16a5.13,5.13,0,0,0-3.37,1,7.93,7.93,0,0,0-1.76,3.34L647.18,99.2H645.1L626.79,52.72h-4.46V50.26h20.81v2.46h-5.77Z"/><path class="cls-2" d="M679.26,95.79V52.72H673.5V50.26h37.86l1.13,12.23h-2.39q-1.3-5.55-3.8-7.7a8.64,8.64,0,0,0-4.15-1.86,32.27,32.27,0,0,0-4.39-.21h-8.4V72.66h2a10.18,10.18,0,0,0,5.45-1.16,5.7,5.7,0,0,0,2.43-3.9,21.92,21.92,0,0,0,.28-3.09h2.39V84.08h-2.39a14.51,14.51,0,0,0-1.27-6.15q-1.55-2.81-7.1-2.81h-1.83V95.79H696a23.57,23.57,0,0,0,8.37-1.16q5.13-2.07,7.17-11.6H714l-1,15.22H673.5V95.79h5.77Z"/><path class="cls-2" d="M727.87,95.79V52.72h-5.77V50.26h20.71a43.29,43.29,0,0,1,10.23.91,12.13,12.13,0,0,1,7.21,5,9.48,9.48,0,0,1,1.58,5.41q0,5.87-5.66,9.07a15.19,15.19,0,0,1-5.73,1.9q-1.05.14-3.23,0.25a29.73,29.73,0,0,1,7.66,2.29,10.67,10.67,0,0,1,5.91,5.73,11.46,11.46,0,0,1,.84,4.36L761.45,89v0.53q0,3.48,1.3,5a3.27,3.27,0,0,0,2.67,1.27h1.86v2.46h-6.82q-4,0-5.77-1.62a10.2,10.2,0,0,1-2.11-2.5,8.14,8.14,0,0,1-.84-4.08V83.7q0-4.89-2.46-7.07a11.22,11.22,0,0,0-4-2.29,20.38,20.38,0,0,0-5.34-.49h-2V95.79h5.73v2.46H722.11V95.79h5.77ZM738,71.39h4.85a13.77,13.77,0,0,0,5.13-.7q3.73-1.58,3.73-9.32,0-4.82-2.18-7.1a4.9,4.9,0,0,0-2.74-1.34,25.63,25.63,0,0,0-3.9-.21H738V71.39Z"/><path class="cls-2" d="M805.66,50.26V63.2h-2.32A16,16,0,0,0,800,55.78q-3.06-4-9.07-4a11.54,11.54,0,0,0-6.26,1.65,6.35,6.35,0,0,0-3.34,5.63,6.2,6.2,0,0,0,1.51,4.11q1.48,1.76,5.59,3.06l5.1,1.41q5.52,1.55,7.7,2.43A12.37,12.37,0,0,1,807.84,76a15.71,15.71,0,0,1,1.69,7.31A16.79,16.79,0,0,1,807.21,92a14,14,0,0,1-6.64,5.77,18.8,18.8,0,0,1-7.7,1.65A22.14,22.14,0,0,1,780,95.19l-2.39,3.06h-2V84.89h2.6A16.15,16.15,0,0,0,782,92.41a14.17,14.17,0,0,0,10.65,4.29,11.49,11.49,0,0,0,7.17-2.39q3.55-2.64,3.55-6.12a7.68,7.68,0,0,0-2.36-5.41,12.87,12.87,0,0,0-5.55-3.13q-1.12-.32-9-2.67a23.87,23.87,0,0,1-5.34-2.07q-5.55-3.55-5.55-10.72a14.41,14.41,0,0,1,4.43-11,15.12,15.12,0,0,1,10.79-4.08,17.18,17.18,0,0,1,8,2q1,0.53,2.5,1.48l2.46-2.25h1.86Z"/><path class="cls-2" d="M823.47,95.79V52.72h-5.77V50.26h21.59v2.46h-5.73V95.79h5.73v2.46H817.71V95.79h5.77Z"/><path class="cls-2" d="M862.76,95.79V52.72h-1.93a14.2,14.2,0,0,0-6.4,1.09Q849.3,56.52,848.53,65h-2.39L847,50.26h41.52L889.45,65h-2.39a16.26,16.26,0,0,0-3.16-8.93,8.23,8.23,0,0,0-4.5-3,19.84,19.84,0,0,0-4.61-.39h-1.93V95.79h6.47v2.46h-23V95.79h6.47Z"/><path class="cls-2" d="M912.71,95.79V76.1L898.82,52.72h-4.39V50.26h22.11v2.46h-6.15l11.43,19.76,8.93-16.7a5.3,5.3,0,0,0,.74-2,1,1,0,0,0-.77-1,7.84,7.84,0,0,0-1.72-.11h-3.34V50.26h13.92v2.46h-1.3a5.13,5.13,0,0,0-3.23.84,9.24,9.24,0,0,0-1.9,2.74L922.8,76V95.79h6.47v2.46H906.2V95.79h6.5Z"/></svg>