<svg id="Layer_1" data-name="Layer 1" xmlns="http://www.w3.org/2000/svg" viewBox="0 0 149.39 28.5"><defs><style>.cls-1{fill:#991b1e;}.cls-2{fill:#231f20;}.cls-3{fill:#fff;}</style></defs><title>iu-signature</title><rect class="cls-1" width="24.26" height="28.5"/><rect class="cls-2" x="32.73" y="8.39" width="1.93" height="9.38"/><path class="cls-2" d="M36.31,8.39h2l2.15,4.21c0.3,0.59.46,0.9,0.76,1.61h0V8.39H43v9.38H41.2l-2.43-4.55c-0.27-.51-0.41-0.77-0.69-1.39h0v5.94H36.31V8.39Z"/><path class="cls-2" d="M47.29,16.15c1.62,0,2.19-.84,2.19-3.1s-0.57-3-2.21-3h-0.7v6.15h0.71ZM44.65,8.39h2.46c2.52,0,4.3,1,4.3,4.66s-1.81,4.71-4.3,4.71H44.65V8.39Z"/><rect class="cls-2" x="52.74" y="8.39" width="1.93" height="9.38"/><path class="cls-2" d="M59.93,13.34c-0.25-1-.46-1.69-0.63-2.56h0c-0.16.89-.38,1.56-0.65,2.55l-0.25,1h1.8Zm-2.47,4.42h-1.8l2.75-9.42h1.85L63,17.76H61.08l-0.51-2H58Z"/><path class="cls-2" d="M64,8.39h2l2.15,4.21c0.31,0.59.46,0.9,0.76,1.61h0V8.39h1.75v9.38H68.9l-2.43-4.55c-0.27-.51-0.41-0.77-0.68-1.39h0v5.94H64V8.39Z"/><path class="cls-2" d="M76,13.34c-0.25-1-.46-1.69-0.63-2.56h0c-0.16.89-.38,1.56-0.65,2.55l-0.25,1h1.8Zm-2.47,4.42h-1.8l2.75-9.42h1.85L79,17.76H77.11l-0.51-2H74Z"/><path class="cls-2" d="M83.19,14.52V8.39h1.93v6c0,1.31.37,1.89,1.33,1.89s1.33-.6,1.33-1.87v-6h1.84v6.12c0,2.17-.93,3.41-3.19,3.41s-3.23-1.24-3.23-3.4"/><path class="cls-2" d="M91.18,8.39h2l2.15,4.21c0.3,0.59.46,0.9,0.76,1.61h0V8.39h1.75v9.38H96.07l-2.43-4.55c-0.27-.51-0.41-0.77-0.68-1.39h0v5.94H91.18V8.39Z"/><rect class="cls-2" x="99.56" y="8.39" width="1.93" height="9.38"/><path class="cls-2" d="M102.48,8.39h1.94l1.1,4.44c0.23,0.89.39,1.56,0.57,2.5h0c0.19-.92.37-1.58,0.58-2.47l1.14-4.46h1.8L107,17.8h-1.86Z"/><polygon class="cls-2" points="110.64 8.39 116.01 8.39 116.01 10.01 112.56 10.01 112.56 12.12 115.05 12.12 115.05 13.66 112.56 13.66 112.56 16.18 116.19 16.18 116.19 17.77 110.64 17.77 110.64 8.39"/><path class="cls-2" d="M120.16,12.82a1.23,1.23,0,0,0,1.41-1.46A1.19,1.19,0,0,0,120.16,10h-1v2.83h1ZM117.3,8.39h2.93c2,0,3.18.84,3.18,2.94a2.51,2.51,0,0,1-1.55,2.5l1.79,3.94h-2l-1.58-3.47h-0.89v3.47H117.3V8.39Z"/><path class="cls-2" d="M124.22,15.7l1.56-.79a2.3,2.3,0,0,0,2,1.48A1.07,1.07,0,0,0,129,15.33c0-.77-0.77-1.13-1.66-1.51-1.23-.52-2.74-1.12-2.74-3a2.7,2.7,0,0,1,3-2.61,3.34,3.34,0,0,1,3.16,2.09l-1.5.81a1.94,1.94,0,0,0-1.7-1.32,0.94,0.94,0,0,0-1.05.94c0,0.75.71,1.1,1.55,1.48,1.25,0.54,2.85,1.14,2.85,3,0,1.42-1.09,2.68-3.13,2.68a3.62,3.62,0,0,1-3.52-2.23"/><rect class="cls-2" x="132.15" y="8.39" width="1.93" height="9.38"/><polygon class="cls-2" points="137.34 10.01 135.11 10.01 135.11 8.39 141.51 8.39 141.51 10.01 139.27 10.01 139.27 17.76 137.34 17.76 137.34 10.01"/><polygon class="cls-2" points="147.51 8.39 145.84 12.34 145.81 12.34 144.14 8.39 142.18 8.39 144.81 14.09 144.81 17.77 146.74 17.77 146.74 14.08 149.39 8.39 147.51 8.39"/><polygon class="cls-3" points="14.86 6.89 14.86 8.39 15.9 8.39 15.9 16.78 13.7 16.78 13.7 5.73 14.87 5.73 14.87 4.23 9.37 4.23 9.37 5.73 10.54 5.73 10.54 16.78 8.32 16.78 8.32 8.39 9.36 8.39 9.36 6.89 4.19 6.89 4.19 8.39 5.36 8.39 5.36 18.1 7.26 20.04 10.54 20.04 10.54 22.28 9.38 22.28 9.38 24.22 14.87 24.22 14.87 22.28 13.7 22.28 13.7 20.04 16.96 20.04 18.86 18.1 18.86 8.39 20.03 8.39 20.03 6.89 14.86 6.89"/></svg>