<?xml version="1.0" encoding="utf-8"?>
<!-- Generator: Adobe Illustrator 16.0.0, SVG Export Plug-In . SVG Version: 6.00 Build 0)  -->
<!DOCTYPE svg PUBLIC "-//W3C//DTD SVG 1.1//EN" "http://www.w3.org/Graphics/SVG/1.1/DTD/svg11.dtd">
<svg version="1.1" id="Layer_1" xmlns="http://www.w3.org/2000/svg" xmlns:xlink="http://www.w3.org/1999/xlink" x="0px" y="0px"
	 width="129px" height="150px" viewBox="0 0 129 150" enable-background="new 0 0 129 150" xml:space="preserve">
<rect fill="#990000" width="129" height="150"/>
<polygon fill="#FFFFFF" points="79.084,36.088 79.084,44.075 84.607,44.075 84.607,88.548 72.922,88.548 72.922,29.975
	79.131,29.975 79.131,21.991 49.984,21.991 49.984,29.975 56.197,29.975 56.197,88.548 44.379,88.548 44.379,44.075 49.902,44.075
	49.902,36.088 22.485,36.088 22.485,44.075 28.678,44.075 28.678,95.573 38.756,105.855 56.197,105.855 56.197,117.729
	50.008,117.729 50.008,128.009 79.113,128.009 79.113,117.729 72.922,117.729 72.922,105.855 90.23,105.855 100.309,95.573
	100.309,44.075 106.516,44.075 106.516,36.088 "/>
</svg>
